# xmcd
#
# Track frame offsets: 
#        150
#        25670
#        48021
#        74762
#        101586
#        117481
#        148810
#        170047
#        206423
#
# Disc length: 3149 seconds
#
# Revision: 0
# Processed by: cddbd v1.5.2PL0 Copyright (c) Steve Scherf et al.
# Submitted via: ExactAudioCopy v1.0b4
#
DISCID=830c4b09
DTITLE=International Blues Duo, The - Introducing The International Bl
DTITLE=ues Duo To The World (LP)
DYEAR=1900
DGENRE=Blues
TTITLE0=Blues For Real
TTITLE1=Stanley T.
TTITLE2=Saxophone Sermon
TTITLE3=Night Train
TTITLE4=New Town
TTITLE5=Summertime
TTITLE6=Hot Cha
TTITLE7=Please, Send Me Someone To Love
TTITLE8=426 West Briar
EXTD=
EXTT0=
EXTT1=
EXTT2=
EXTT3=
EXTT4=
EXTT5=
EXTT6=
EXTT7=
EXTT8=
PLAYORDER=
